# xmcd
# 
# Track frame offsets:
#     150
#     28425
#     52950
#     81225
# 
# Disc length: 1313
# 
# Revision: 2
# Processed by: cddbd v1.5.2PL0 Copyright (c) Steve Scherf et al.
# Submitted via: BonkEnc v1.0.5
# 
DISCID=2e051f04
DTITLE=KinKi Kids - Happy Happy Greeting
DYEAR=1998
DGENRE=Pop
TTITLE0=Happy Happy Greeting
TTITLE1=シンデレラ・クリスマス
TTITLE2=Happy Happy Greeting(Karaoke)
TTITLE3=シンデレラ・クリスマス(Karaoke)
EXTD=
EXTT0=
EXTT1=
EXTT2=
EXTT3=
PLAYORDER=
